
<svg version="1.0" xmlns="http://www.w3.org/2000/svg"
 width="16" height="16" viewBox="0 0 900.000000 900.000000"
 preserveAspectRatio="xMidYMid meet">
<metadata>
Created by potrace 1.16, written by Peter Selinger 2001-2019
</metadata>
<g transform="translate(0.000000,900.000000) scale(0.100000,-0.100000)"
fill="#000000" stroke="none">
<path d="M5215 7609 c-62 -30 -83 -70 -135 -264 -8 -30 -105 -365 -215 -745
-32 -107 -61 -208 -65 -225 -5 -16 -25 -86 -45 -155 -20 -69 -40 -138 -45
-155 -4 -16 -52 -181 -105 -365 -53 -184 -113 -389 -132 -455 -19 -66 -38
-133 -43 -150 -8 -31 -85 -295 -215 -745 -83 -286 -141 -487 -155 -535 -24
-87 -72 -254 -81 -280 -5 -16 -36 -124 -69 -240 -33 -115 -69 -239 -79 -275
-11 -36 -27 -92 -37 -125 -9 -33 -25 -87 -35 -120 -25 -85 -250 -864 -260
-900 -17 -62 -28 -102 -54 -190 -14 -49 -30 -103 -35 -120 -4 -16 -25 -86 -45
-155 -20 -69 -40 -138 -44 -155 -5 -16 -22 -78 -40 -136 -17 -59 -31 -126 -31
-148 0 -75 60 -136 155 -160 22 -5 83 -21 135 -35 182 -51 190 -52 242 -28 25
11 54 32 64 47 15 23 45 112 74 220 10 35 44 153 175 605 54 184 101 349 106
365 4 17 24 86 44 155 20 69 40 139 45 155 4 17 24 84 43 150 19 66 79 271
132 455 53 184 101 349 105 365 5 17 25 86 45 155 20 69 40 139 45 155 4 17
47 165 95 330 48 165 91 314 96 330 4 17 24 86 44 155 20 69 40 139 45 155 4
17 37 132 74 258 36 125 96 329 132 455 37 125 70 241 74 257 5 17 25 86 45
155 20 69 40 139 45 155 4 17 33 118 65 225 87 299 206 711 215 745 5 17 25
86 45 155 20 69 40 139 44 155 5 17 22 78 40 136 34 118 38 166 17 207 -31 59
-59 73 -253 128 -103 29 -197 53 -208 53 -11 0 -38 -9 -60 -20z"/>
<path d="M2335 6664 c-11 -8 -541 -535 -1177 -1172 l-1158 -1157 0 -160 0
-160 1162 -1162 c1278 -1276 1196 -1201 1291 -1174 34 10 71 42 199 169 127
128 159 165 169 200 27 94 86 28 -1014 1130 l-1002 1002 1002 1003 c1100 1101
1042 1036 1014 1129 -10 33 -42 72 -145 176 -166 170 -197 192 -268 192 -31
-1 -61 -7 -73 -16z"/>
<path d="M6494 6651 c-21 -16 -96 -87 -166 -158 -157 -159 -181 -208 -142
-286 9 -18 464 -481 1012 -1029 l997 -998 -997 -997 c-548 -549 -1003 -1012
-1012 -1030 -41 -82 -13 -133 170 -314 119 -117 158 -150 192 -160 94 -28 12
-102 1290 1174 l1162 1162 -2 165 -1 165 -1171 1168 -1171 1167 -61 0 c-51 0
-67 -5 -100 -29z"/>
</g>
</svg>
