
<svg version="1.0" xmlns="http://www.w3.org/2000/svg"
 width="16" height="16" viewBox="0 0 860.000000 900.000000"
 preserveAspectRatio="xMidYMid meet">

<g transform="translate(0.000000,900.000000) scale(0.100000,-0.100000)"
fill="#000000" stroke="none">
<path d="M6460 8589 c-344 -34 -697 -197 -954 -440 -265 -251 -411 -510 -492
-875 -24 -106 -27 -140 -26 -314 0 -202 10 -306 43 -450 l20 -84 -1293 -1293
c-1169 -1169 -1295 -1293 -1318 -1287 -145 36 -256 55 -363 64 -724 56 -1408
-372 -1676 -1048 -88 -220 -107 -356 -98 -691 7 -276 32 -387 131 -596 48
-102 82 -140 136 -156 82 -25 92 -17 635 523 l421 417 214 -214 214 -215 -430
-432 c-432 -435 -495 -502 -513 -549 -26 -69 30 -149 138 -201 223 -106 498
-157 781 -145 352 16 620 108 890 305 122 89 335 310 418 435 111 166 200 374
238 552 40 188 36 559 -7 747 -12 51 -23 105 -26 119 -4 22 13 42 127 152 73
70 656 647 1296 1283 l1164 1156 116 -26 c160 -37 303 -49 475 -43 305 12 582
102 834 272 265 178 455 396 590 678 88 183 125 318 145 522 26 275 3 490 -77
725 -79 231 -153 323 -249 306 -49 -10 -140 -93 -612 -560 l-393 -390 -212
212 -211 211 460 463 c293 295 467 477 478 501 22 48 14 106 -20 146 -13 16
-54 44 -92 64 -244 129 -585 187 -902 156z m480 -322 c36 -9 78 -20 93 -26 24
-9 26 -14 17 -31 -6 -11 -190 -199 -409 -418 -218 -218 -412 -418 -429 -444
-42 -61 -49 -96 -27 -138 18 -36 575 -604 668 -681 57 -48 60 -49 125 -49 l67
0 444 444 c245 245 448 443 452 441 3 -3 17 -53 30 -112 21 -94 24 -134 24
-308 0 -219 -9 -286 -57 -425 -148 -422 -467 -740 -885 -879 -130 -44 -234
-54 -472 -48 -197 5 -212 7 -336 41 -211 58 -165 81 -496 -236 -348 -333
-2203 -2187 -2390 -2389 -93 -99 -138 -156 -142 -177 -4 -20 5 -73 27 -154 19
-67 39 -148 45 -178 88 -416 -59 -887 -377 -1209 -195 -197 -512 -353 -777
-382 -193 -20 -433 -3 -573 42 -30 10 -31 12 -18 31 15 22 158 169 562 578
275 280 314 326 314 376 0 44 -41 93 -278 336 -349 357 -486 471 -543 453 -30
-10 -91 -67 -484 -450 -455 -443 -454 -443 -465 -424 -30 46 -60 251 -60 405
0 300 110 620 288 834 195 235 382 367 645 455 157 52 279 68 477 62 145 -4
182 -9 305 -40 197 -49 214 -51 250 -29 66 41 297 267 1244 1213 952 952 1534
1544 1566 1592 14 22 12 35 -21 168 -19 79 -42 187 -49 239 -42 271 8 567 135
808 188 358 539 628 930 717 86 19 483 14 580 -8z"/>
</g>
</svg>
